<?xml version="1.0" encoding="UTF-8" standalone="no"?>
<!-- Created with Inkscape (http://www.inkscape.org/) -->
<svg xmlns:dc="http://purl.org/dc/elements/1.1/" xmlns:cc="http://creativecommons.org/ns#" xmlns:rdf="http://www.w3.org/1999/02/22-rdf-syntax-ns#" xmlns:svg="http://www.w3.org/2000/svg" xmlns="http://www.w3.org/2000/svg" xmlns:sodipodi="http://sodipodi.sourceforge.net/DTD/sodipodi-0.dtd" xmlns:inkscape="http://www.inkscape.org/namespaces/inkscape" width="17.761719" height="14.960938" id="svg3013" version="1.1" inkscape:version="0.92.5 (2060ec1f9f, 2020-04-08)" sodipodi:docname="Cyrillic_letter_multiocular_O.svg">
  <defs id="defs3015"/>
  <sodipodi:namedview id="base" pagecolor="#ffffff" bordercolor="#666666" borderopacity="1.0" inkscape:pageopacity="0.0" inkscape:pageshadow="2" inkscape:zoom="44.6185" inkscape:cx="7.3552271" inkscape:cy="7.4807583" inkscape:document-units="px" inkscape:current-layer="layer1" showgrid="false" fit-margin-top="0" fit-margin-left="0" fit-margin-right="0" fit-margin-bottom="0" inkscape:window-width="1920" inkscape:window-height="1009" inkscape:window-x="0" inkscape:window-y="0" inkscape:window-maximized="1"/>
  <metadata id="metadata3018">
    <rdf:RDF>
      <cc:Work rdf:about="">
        <dc:format>image/svg+xml</dc:format>
        <dc:type rdf:resource="http://purl.org/dc/dcmitype/StillImage"/>
        <dc:title/>
      </cc:Work>
    </rdf:RDF>
  </metadata>
  <g inkscape:label="Layer 1" inkscape:groupmode="layer" id="layer1" transform="translate(-63.34453,217.97514)">
    <path style="font-style:normal;font-variant:normal;font-weight:normal;font-stretch:normal;font-size:20px;line-height:125%;font-family:'Old Standard TT';-inkscape-font-specification:'Old Standard TT';letter-spacing:0px;word-spacing:0px;fill:#000000;fill-opacity:1;stroke:none" d="m 0.640625,0 c -0.77353,1e-5 -1.41834062,0.26429562 -1.9316406,0.79101562 -0.51331,0.52674998 -0.7695313,1.18833128 -0.7695313,1.98828128 0,0.7601 0.2263975,1.3877093 0.6796875,1.8808593 l -0.039063,0.041016 c -0.78695,10e-6 -1.4328631,0.2623325 -1.9394531,0.7890625 -0.50659,0.52674 -0.7617188,1.1902744 -0.7617188,1.9902344 0,0.79997 0.2551288,1.4637143 0.7617188,1.9902343 0.50659,0.52654 1.1525031,0.7890626 1.9394531,0.7890626 l 0.039063,0.04101 c -0.45329,0.49317 -0.6796875,1.118817 -0.6796875,1.878907 0,0.799959 0.2562213,1.463494 0.7695313,1.990234 0.51329998,0.52673 1.1581106,0.791016 1.9316406,0.791016 0.85326,0 1.5385737,-0.308276 2.0585938,-0.921876 0.5200099,0.6136 1.2072668,0.921876 2.0605468,0.921876 0.85326,0 1.5405269,-0.308276 2.0605469,-0.921876 0.52001,0.6136 1.2072669,0.921876 2.0605469,0.921876 0.7731,0 1.4161676,-0.264286 1.9296876,-0.791016 0.5135,-0.52674 0.769521,-1.190275 0.769531,-1.990234 -10e-6,-0.76009 -0.226007,-1.385737 -0.679687,-1.878907 l 0.03906,-0.04101 c 0.78652,0 1.434596,-0.2625226 1.941406,-0.7890626 0.50678,-0.52652 0.759756,-1.1902643 0.759766,-1.9902343 -10e-6,-0.79996 -0.252986,-1.4634944 -0.759766,-1.9902344 -0.50681,-0.52673 -1.154886,-0.7890525 -1.941406,-0.7890625 l -0.03906,-0.041016 c 0.45368,-0.49315 0.679677,-1.1207593 0.679687,-1.8808593 -10e-6,-0.79995 -0.256031,-1.4615313 -0.769531,-1.98828128 C 10.297027,0.26429563 9.6539594,1e-5 8.8808594,0 8.0275794,1e-5 7.3403225,0.30633188 6.8203125,0.91992188 6.3002925,0.30633187 5.6130256,1e-5 4.7597656,0 3.9064856,1e-5 3.2192287,0.30633188 2.6992188,0.91992188 2.1791988,0.30633187 1.493885,1e-5 0.640625,0 Z m 0,0.40039062 c 0.23986,1.001e-5 0.4488463,0.047425 0.6289062,0.140625 0.1800501,0.0932 0.3198219,0.20639375 0.4199219,0.33984376 0.10009,0.13347002 0.1771688,0.31243252 0.2304688,0.53906252 0.05327,0.22666 0.089375,0.440645 0.109375,0.640625 0.0199,0.20001 0.03125,0.43882 0.03125,0.71875 0,0.27996 -0.01135,0.5207231 -0.03125,0.7207031 -0.01997,0.2 -0.056075,0.413995 -0.109375,0.640625 -0.05331,0.22666 -0.1303788,0.4056025 -0.2304688,0.5390625 -0.1001,0.13347 -0.2398719,0.2464437 -0.4199219,0.3398437 C 1.0894713,5.1129013 0.880485,5.1601663 0.640625,5.1601562 0.400755,5.1601663 0.18981562,5.1129313 0.00976563,5.0195312 -0.17029438,4.9261513 -0.31025625,4.8131575 -0.41015625,4.6796875 -0.51005625,4.5462275 -0.587125,4.3703306 -0.640625,4.1503906 -0.694085,3.9304706 -0.7301,3.7164856 -0.75,3.5097656 -0.7699,3.3030756 -0.78126,3.0592569 -0.78125,2.7792969 c 0,-0.27993 0.01135,-0.5217957 0.03125,-0.7285157 0.01996,-0.2066899 0.055875,-0.4206849 0.109375,-0.640625 0.05351,-0.21992 0.13056875,-0.3958268 0.23046875,-0.52929682 0.09989,-0.13345 0.23986188,-0.24664376 0.41992188,-0.33984376 0.18004999,-0.09317 0.39098937,-0.14061499 0.63085937,-0.140625 z m 4.1191406,0 c 0.23986,1.001e-5 0.4507994,0.047425 0.6308594,0.140625 0.18005,0.0932 0.3198219,0.20639375 0.4199219,0.33984376 0.10009,0.13347002 0.1771687,0.31243252 0.2304687,0.53906252 0.05327,0.22666 0.089375,0.440645 0.109375,0.640625 0.0199,0.20001 0.029297,0.43882 0.029297,0.71875 0,0.27996 -0.0094,0.5207231 -0.029297,0.7207031 -0.01997,0.2 -0.056075,0.413995 -0.109375,0.640625 -0.05331,0.22666 -0.1303787,0.4056025 -0.2304687,0.5390625 -0.1001,0.13347 -0.2398719,0.2464437 -0.4199219,0.3398437 -0.18006,0.09337 -0.3909994,0.1406351 -0.6308594,0.140625 -0.24008,1.01e-5 -0.4508094,-0.047225 -0.6308594,-0.140625 C 3.9488462,4.9261513 3.8088844,4.8131575 3.7089844,4.6796875 3.6090844,4.5462275 3.5337687,4.367285 3.4804688,4.140625 3.4271988,3.913995 3.3892406,3.7 3.3691406,3.5 3.3490406,3.30002 3.3398337,3.0592569 3.3398438,2.7792969 c 0,-0.27993 0.0093,-0.51895 0.029297,-0.71875 0.02037,-0.20019 0.058028,-0.413965 0.1113282,-0.640625 0.0533,-0.22663 0.1286156,-0.4055925 0.2285156,-0.53906252 0.09988,-0.13345 0.2398619,-0.24664376 0.4199218,-0.33984376 0.18005,-0.09317 0.3907794,-0.14061499 0.6308592,-0.140625 z m 4.1210938,0 c 0.24006,1.001e-5 0.4490462,0.047425 0.6289062,0.140625 0.17984,0.0932 0.3198219,0.20639375 0.4199219,0.33984376 0.1000895,0.13347002 0.1771685,0.31243252 0.2304685,0.53906252 0.05326,0.22666 0.08948,0.440645 0.109375,0.640625 0.0199,0.20001 0.02929,0.43882 0.0293,0.71875 0,0.27996 -0.0094,0.5207231 -0.0293,0.7207031 -0.01996,0.2 -0.05607,0.413995 -0.109375,0.640625 -0.05332,0.22666 -0.130379,0.4056025 -0.2304685,0.5390625 -0.1001,0.13347 -0.2400819,0.2464437 -0.4199219,0.3398437 -0.17986,0.09337 -0.3888462,0.1406351 -0.6289062,0.140625 C 8.6407794,5.1601663 8.43005,5.1129313 8.25,5.0195312 8.06994,4.9261513 7.9299781,4.8131575 7.8300781,4.6796875 7.7301781,4.5462275 7.6529094,4.367285 7.5996094,4.140625 7.5463394,3.913995 7.5103344,3.7 7.4902344,3.5 c -0.0201,-0.19998 -0.03126,-0.4407431 -0.03125,-0.7207031 0,-0.27993 0.01125,-0.51895 0.03125,-0.71875 0.02037,-0.20019 0.056075,-0.413965 0.109375,-0.640625 0.0533,-0.22663 0.1305687,-0.4055925 0.2304687,-0.53906252 C 7.9299581,0.74740938 8.06994,0.63421562 8.25,0.54101562 8.43005,0.44784563 8.6407794,0.40040063 8.8808594,0.40039062 Z M 0.640625,2.140625 C 0.454055,2.140645 0.2997175,2.203548 0.1796875,2.3300781 0.0596375,2.4566381 -1e-5,2.6059669 0,2.7792969 c -1e-5,0.17335 0.0596475,0.3242319 0.1796875,0.4511719 0.12003,0.12652 0.2743675,0.1894631 0.4609375,0.1894531 0.18656,1e-5 0.33894437,-0.062693 0.4589844,-0.1894531 0.12005,-0.1267401 0.1796875,-0.2778219 0.1796875,-0.4511719 0,-0.17333 -0.059658,-0.3226588 -0.1796875,-0.4492188 C 0.97956937,2.2035581 0.827185,2.140645 0.640625,2.140625 Z m 4.1191406,0 c -0.18657,2e-5 -0.3389544,0.062923 -0.4589844,0.1894531 -0.1200499,0.12656 -0.1816506,0.2758888 -0.1816406,0.4492188 -10e-6,0.17335 0.061601,0.3242319 0.1816406,0.4511719 0.12003,0.12652 0.2724144,0.1894631 0.4589844,0.1894531 0.18656,1e-5 0.3408975,-0.062693 0.4609375,-0.1894531 0.12005,-0.1267401 0.1796875,-0.2778219 0.1796875,-0.4511719 0,-0.17333 -0.059658,-0.3226588 -0.1796875,-0.4492188 C 5.1006631,2.2035581 4.9463256,2.140645 4.7597656,2.140625 Z m 4.1210938,0 c -0.18678,2e-5 -0.3409075,0.062923 -0.4609375,0.1894531 -0.12005,0.12656 -0.1796975,0.2758888 -0.1796875,0.4492188 -10e-6,0.17335 0.059648,0.3242319 0.1796875,0.4511719 0.12003,0.12652 0.2741575,0.1894631 0.4609375,0.1894531 0.18676,1e-5 0.3391444,-0.062693 0.4589844,-0.1894531 C 9.4596937,3.1037287 9.5195212,2.9526469 9.5195312,2.7792969 9.5195212,2.6059669 9.4596638,2.4566381 9.3398438,2.3300781 9.2200037,2.2035581 9.0676194,2.140645 8.8808594,2.140625 Z M -1.4199219,5.0996094 c 0.2533,10e-6 0.4653219,0.044159 0.6386719,0.1308594 0.17333,0.08668 0.31005625,0.1998737 0.41015625,0.3398437 0.1001,0.13998 0.18023437,0.3189325 0.24023437,0.5390625 0.05996,0.22014 0.09812813,0.434135 0.11132813,0.640625 C -0.00673125,6.95651 -1e-5,7.2003288 0,7.4804688 c 0,0.2801599 -0.00633125,0.5237687 -0.01953125,0.7304687 -0.01326,0.20671 -0.05132813,0.4187519 -0.11132813,0.6386719 -0.06003,0.21994 -0.14013437,0.4010456 -0.24023437,0.5410156 -0.1001,0.13998 -0.23682625,0.2531437 -0.41015625,0.3398438 -0.17335,0.08671 -0.3853719,0.1289062 -0.6386719,0.1289062 -0.2533,0 -0.467285,-0.042206 -0.640625,-0.1289062 -0.17334,-0.08666 -0.3100562,-0.1998638 -0.4101562,-0.3398438 -0.1001,-0.13997 -0.1804344,-0.3210756 -0.2402344,-0.5410156 -0.05987,-0.21992 -0.095975,-0.4319619 -0.109375,-0.6386719 -0.0131,-0.2067 -0.019531,-0.4503088 -0.019531,-0.7304687 0,-0.28014 0.00613,-0.5241688 0.019531,-0.7304688 0.01347,-0.2067 0.049575,-0.420485 0.109375,-0.640625 0.05981,-0.22013 0.1401344,-0.3990825 0.2402344,-0.5390625 0.1001,-0.13997 0.2368162,-0.2531437 0.4101562,-0.3398437 0.17334,-0.0867 0.387325,-0.1308494 0.640625,-0.1308594 z m 4.1191407,0 c 0.2532899,10e-6 0.467275,0.044159 0.640625,0.1308594 0.17333,0.08668 0.3100462,0.1998737 0.4101562,0.3398437 0.10009,0.13998 0.1802344,0.3189325 0.2402344,0.5390625 0.06006,0.22014 0.096175,0.434135 0.109375,0.640625 0.0128,0.20651 0.019521,0.4503288 0.019531,0.7304688 0,0.2801599 -0.00613,0.5237687 -0.019531,0.7304687 -0.01306,0.20671 -0.049375,0.4187519 -0.109375,0.6386719 C 3.9302044,9.0695494 3.85009,9.250655 3.75,9.390625 3.64989,9.530605 3.5131738,9.6437687 3.3398438,9.7304688 c -0.17335,0.08671 -0.387335,0.1289062 -0.640625,0.1289062 -0.25331,0 -0.4653319,-0.042206 -0.6386719,-0.1289062 C 1.8872069,9.6438088 1.7502906,9.530605 1.6503906,9.390625 1.5504906,9.250655 1.4701563,9.0695494 1.4101562,8.8496094 1.3500963,8.6296894 1.3122281,8.4176475 1.2988281,8.2109375 c -0.0132,-0.2067 -0.019531,-0.4503088 -0.019531,-0.7304687 0,-0.2801401 0.00613,-0.5239588 0.019531,-0.7304688 0.01346,-0.20649 0.051328,-0.420485 0.1113281,-0.640625 0.06002,-0.22013 0.1403344,-0.3990825 0.2402344,-0.5390625 0.09989,-0.13997 0.2368163,-0.2531437 0.4101563,-0.3398437 0.17334,-0.0867 0.3853619,-0.1308494 0.6386719,-0.1308594 z m 4.1210937,0 c 0.25329,10e-6 0.4653219,0.044159 0.6386719,0.1308594 0.17333,0.08668 0.3100462,0.1998737 0.4101562,0.3398437 0.10009,0.13998 0.1802344,0.3189325 0.2402344,0.5390625 0.06006,0.22014 0.098128,0.434135 0.1113281,0.640625 0.0128,0.20651 0.019521,0.4503288 0.019531,0.7304688 0,0.2801599 -0.00808,0.5237687 -0.021484,0.7304687 -0.01306,0.20671 -0.049375,0.4187519 -0.109375,0.6386719 -0.06003,0.21994 -0.1401444,0.4010456 -0.2402344,0.5410156 -0.10011,0.13998 -0.2368262,0.2531437 -0.4101562,0.3398438 -0.17335,0.08671 -0.3853819,0.1289062 -0.6386719,0.1289062 -0.25331,0 -0.467285,-0.042206 -0.640625,-0.1289062 C 6.0063475,9.6438088 5.8694313,9.530605 5.7695312,9.390625 5.6696313,9.250655 5.5892969,9.0695494 5.5292969,8.8496094 c -0.06006,-0.21992 -0.095975,-0.4319619 -0.109375,-0.6386719 -0.0132,-0.2067 -0.019531,-0.4503088 -0.019531,-0.7304687 0,-0.2801401 0.00613,-0.5239588 0.019531,-0.7304688 0.01346,-0.20649 0.049375,-0.420485 0.109375,-0.640625 0.06002,-0.22013 0.1403343,-0.3990825 0.2402343,-0.5390625 0.09989,-0.13997 0.2368163,-0.2531437 0.4101563,-0.3398437 0.17334,-0.0867 0.387315,-0.1308494 0.640625,-0.1308594 z m 4.1191405,0 c 0.25348,10e-6 0.467275,0.044159 0.640625,0.1308594 0.17333,0.08668 0.310256,0.1998737 0.410156,0.3398437 0.09988,0.13998 0.180235,0.3189325 0.240235,0.5390625 0.05997,0.22014 0.09618,0.434135 0.109375,0.640625 0.0128,0.20651 0.01952,0.4503288 0.01953,0.7304688 0,0.2801599 -0.0063,0.5237687 -0.01953,0.7304687 -0.01327,0.20671 -0.04937,0.4187519 -0.109375,0.6386719 -0.06003,0.21994 -0.140335,0.4010456 -0.240235,0.5410156 -0.09991,0.13998 -0.236826,0.2531437 -0.410156,0.3398438 -0.17335,0.08671 -0.387145,0.1289062 -0.640625,0.1289062 -0.25352,0 -0.467295,-0.042206 -0.640625,-0.1289062 C 10.125478,9.6438088 9.990525,9.530605 9.890625,9.390625 9.790715,9.250655 9.7103906,9.0695494 9.6503906,8.8496094 9.5903206,8.6296894 9.5524625,8.4176475 9.5390625,8.2109375 9.5259625,8.0042375 9.5195212,7.7606287 9.5195312,7.4804688 9.5194312,7.2003288 9.5256625,6.9563 9.5390625,6.75 c 0.01337,-0.2067 0.051328,-0.420485 0.1113281,-0.640625 0.06,-0.22013 0.1403344,-0.3990825 0.2402344,-0.5390625 0.09988,-0.13997 0.234853,-0.2531437 0.408203,-0.3398437 0.17333,-0.0867 0.387105,-0.1308494 0.640625,-0.1308594 z M -1.4199219,6.8398438 c -0.17334,1e-5 -0.3224787,0.059667 -0.4492187,0.1796874 -0.12673,0.12005 -0.1914063,0.2743875 -0.1914063,0.4609376 0,0.18657 0.062903,0.3389543 0.1894531,0.4589843 0.12695,0.12006 0.2778319,0.1816407 0.4511719,0.1816407 0.17334,0 0.3226688,-0.061591 0.44921878,-0.1816407 C -0.84418313,7.8194231 -0.78126,7.6670387 -0.78125,7.4804688 -0.78126,7.2939187 -0.84416312,7.1395812 -0.97070312,7.0195312 -1.0972531,6.8994813 -1.2465819,6.8398538 -1.4199219,6.8398438 Z m 4.1191407,0 C 2.5258788,6.8398538 2.37674,6.8995112 2.25,7.0195312 2.12327,7.1395812 2.0605469,7.2939187 2.0605469,7.4804688 c 0,0.18657 0.062903,0.3389543 0.1894531,0.4589843 0.12695,0.12006 0.2758788,0.1816407 0.4492188,0.1816407 0.17333,0 0.3246218,-0.061591 0.4511718,-0.1816407 0.12652,-0.12003 0.1894431,-0.2724144 0.1894532,-0.4589843 C 3.3398337,7.2939187 3.2769306,7.1395812 3.1503906,7.0195312 3.0238406,6.8994813 2.8725488,6.8398538 2.6992188,6.8398438 Z m 4.1210937,0 c -0.17334,1e-5 -0.3244319,0.059667 -0.4511719,0.1796874 -0.12673,0.12005 -0.1894531,0.2743875 -0.1894531,0.4609376 0,0.18657 0.062903,0.3389543 0.1894531,0.4589843 0.12695,0.12006 0.2778319,0.1816407 0.4511719,0.1816407 0.17333,0 0.3226688,-0.061591 0.4492187,-0.1816407 0.12652,-0.12003 0.1894432,-0.2724144 0.1894532,-0.4589843 C 7.4589744,7.2939187 7.3960713,7.1395812 7.2695312,7.0195312 7.1429812,6.8994813 6.9936425,6.8398538 6.8203125,6.8398438 Z m 4.1191405,0 c -0.17336,1e-5 -0.322479,0.059667 -0.449219,0.1796874 -0.12672,0.12005 -0.191416,0.2743875 -0.191406,0.4609376 -10e-6,0.18657 0.06485,0.3389543 0.191406,0.4589843 0.12694,0.12006 0.275859,0.1816407 0.449219,0.1816407 0.17332,0 0.324412,-0.061591 0.451172,-0.1816407 0.12672,-0.12003 0.189443,-0.2724144 0.189453,-0.4589843 -10e-6,-0.1865501 -0.06271,-0.3408876 -0.189453,-0.4609376 C 11.263865,6.8994813 11.112773,6.8398538 10.939453,6.8398438 Z M 0.640625,9.8007812 c 0.23986,0 0.4488463,0.045472 0.6289062,0.1386719 0.1800501,0.09318 0.3198219,0.2063839 0.4199219,0.3398439 0.10009,0.13347 0.1771688,0.314375 0.2304688,0.541015 0.05327,0.226651 0.089375,0.440635 0.109375,0.640626 0.0199,0.199989 0.03125,0.438799 0.03125,0.71875 0,0.279949 -0.01135,0.520713 -0.03125,0.720703 -0.01997,0.19999 -0.056075,0.413985 -0.109375,0.640625 -0.05331,0.22664 -0.1303788,0.405602 -0.2304688,0.539062 -0.1001,0.13346 -0.2398719,0.246644 -0.4199219,0.339844 -0.1800599,0.09317 -0.3890462,0.140625 -0.6289062,0.140625 -0.23987,0 -0.45080938,-0.04743 -0.63085937,-0.140625 -0.18006001,-0.09318 -0.32002188,-0.206384 -0.41992188,-0.339844 -0.0999,-0.13346 -0.17696875,-0.309367 -0.23046875,-0.529297 -0.05346,-0.21993 -0.089475,-0.433925 -0.109375,-0.640625 -0.0199,-0.20671 -0.03126,-0.450518 -0.03125,-0.730468 0,-0.279951 0.01135,-0.521816 0.03125,-0.728516 0.01996,-0.20671 0.055875,-0.420685 0.109375,-0.640625 0.05351,-0.21992 0.13056875,-0.39778 0.23046875,-0.53125 0.09989,-0.13346 0.23986188,-0.246644 0.41992188,-0.3398439 C 0.18981562,9.8462831 0.400755,9.8007812 0.640625,9.8007812 Z m 4.1191406,0 c 0.23986,0 0.4507994,0.045472 0.6308594,0.1386719 0.18005,0.09318 0.3198219,0.2063839 0.4199219,0.3398439 0.10009,0.13347 0.1771687,0.314375 0.2304687,0.541015 0.05327,0.226651 0.089375,0.440635 0.109375,0.640626 0.0199,0.199989 0.029297,0.438799 0.029297,0.71875 0,0.279949 -0.0094,0.520713 -0.029297,0.720703 -0.01997,0.19999 -0.056075,0.413985 -0.109375,0.640625 -0.05331,0.22664 -0.1303787,0.405602 -0.2304687,0.539062 -0.1001,0.13346 -0.2398719,0.246644 -0.4199219,0.339844 -0.18006,0.09317 -0.3909994,0.140625 -0.6308594,0.140625 -0.24008,0 -0.4508094,-0.04743 -0.6308594,-0.140625 -0.18006,-0.09318 -0.3200218,-0.206384 -0.4199218,-0.339844 -0.0999,-0.13346 -0.1752157,-0.312422 -0.2285156,-0.539062 -0.05327,-0.22664 -0.091228,-0.440635 -0.1113282,-0.640625 -0.0201,-0.19999 -0.029307,-0.440753 -0.029297,-0.720703 0,-0.27995 0.0093,-0.51896 0.029297,-0.71875 0.02037,-0.200191 0.058028,-0.413975 0.1113282,-0.640626 0.0533,-0.226639 0.1286156,-0.407545 0.2285156,-0.541015 0.09988,-0.13346 0.2398619,-0.246644 0.4199218,-0.3398439 0.18005,-0.09317 0.3907794,-0.1386719 0.6308594,-0.1386719 z m 4.1210938,0 c 0.24006,0 0.4490462,0.045472 0.6289062,0.1386719 0.17984,0.09318 0.3198219,0.2063839 0.4199219,0.3398439 0.1000895,0.13347 0.1771685,0.314375 0.2304685,0.541015 0.05326,0.226651 0.08948,0.440635 0.109375,0.640626 0.0199,0.199989 0.02929,0.438799 0.0293,0.71875 0,0.279949 -0.0094,0.520713 -0.0293,0.720703 -0.01996,0.19999 -0.05607,0.413985 -0.109375,0.640625 -0.05332,0.22664 -0.130379,0.405602 -0.2304685,0.539062 -0.1001,0.13346 -0.2400819,0.246644 -0.4199219,0.339844 -0.17986,0.09317 -0.3888462,0.140625 -0.6289062,0.140625 -0.24008,0 -0.4508094,-0.04743 -0.6308594,-0.140625 -0.18006,-0.09318 -0.3200219,-0.206384 -0.4199219,-0.339844 -0.0999,-0.13346 -0.1771687,-0.312422 -0.2304687,-0.539062 -0.05327,-0.22664 -0.089275,-0.440635 -0.109375,-0.640625 -0.0201,-0.19999 -0.03126,-0.440753 -0.03125,-0.720703 0,-0.27995 0.01125,-0.51896 0.03125,-0.71875 0.02037,-0.200191 0.056075,-0.413975 0.109375,-0.640626 0.0533,-0.226639 0.1305687,-0.407545 0.2304687,-0.541015 C 7.9299581,10.145837 8.06994,10.032653 8.25,9.9394531 8.43005,9.8462831 8.6407794,9.8007812 8.8808594,9.8007812 Z M 0.640625,11.539062 c -0.18657,0 -0.3409075,0.06466 -0.4609375,0.191407 C 0.0596375,11.857219 -1e-5,12.006348 0,12.179688 c -1e-5,0.173339 0.0596475,0.324211 0.1796875,0.451171 0.12003,0.12651 0.2743675,0.189464 0.4609375,0.189453 0.18656,1.1e-5 0.33894437,-0.0627 0.4589844,-0.189453 0.12005,-0.12675 0.1796875,-0.277832 0.1796875,-0.451171 0,-0.17334 -0.059658,-0.322469 -0.1796875,-0.449219 C 0.97956937,11.603749 0.827185,11.539062 0.640625,11.539062 Z m 4.1191406,0 c -0.18657,0 -0.3389544,0.06466 -0.4589844,0.191407 -0.1200499,0.12675 -0.1816506,0.275879 -0.1816406,0.449219 -10e-6,0.173339 0.061601,0.324211 0.1816406,0.451171 0.12003,0.12651 0.2724144,0.189464 0.4589844,0.189453 0.18656,1.1e-5 0.3408975,-0.0627 0.4609375,-0.189453 0.12005,-0.12675 0.1796875,-0.277832 0.1796875,-0.451171 0,-0.17334 -0.059658,-0.322469 -0.1796875,-0.449219 -0.12004,-0.12672 -0.2743775,-0.191407 -0.4609375,-0.191407 z m 4.1210938,0 c -0.18678,0 -0.3409075,0.06466 -0.4609375,0.191407 -0.12005,0.12675 -0.1796975,0.275879 -0.1796875,0.449219 -10e-6,0.173339 0.059648,0.324211 0.1796875,0.451171 0.12003,0.12651 0.2741575,0.189464 0.4609375,0.189453 0.18676,1.1e-5 0.3391444,-0.0627 0.4589844,-0.189453 0.1198499,-0.12675 0.1796774,-0.277832 0.1796874,-0.451171 -10e-6,-0.17334 -0.059867,-0.322469 -0.1796874,-0.449219 -0.1198401,-0.12672 -0.2722244,-0.191407 -0.4589844,-0.191407 z" transform="translate(67.465624,-217.97514)" id="path3004" inkscape:connector-curvature="0"/>
  </g>
</svg>